<svg viewBox="350 480 1100 130" xmlns="http://www.w3.org/2000/svg">
  <defs>
    <style>.cls-1,.cls-2,.cls-3,.cls-4,.cls-5,.cls-6,.cls-7,.cls-8,.cls-9{fill:#b8860b;}</style>
  </defs>
  <path class="cls-1" d="M446.79,539.59q0,21-15.49,35.59a51.77,51.77,0,0,1-36.78,14.44q-22.49,0-37.38-13.55-15.34-13.85-15.34-36a47.38,47.38,0,0,1,15.49-35.89q15.33-14.29,37.23-14.29,22.34,0,37.23,14T446.79,539.59Zm-14.74,2.53q0-21.15-11.62-33.51-11-11.76-29.34-11.76A31.44,31.44,0,0,0,366.3,508q-9.76,11.16-9.76,29,0,21.45,11.32,33.81,11,11.91,29.78,11.91,15.2,0,24.8-11.24T432.05,542.12Z"/><path class="cls-2" d="M525.42,587.39q-5.52-8.64-40.21-62.1l.15,37.53v11.32q0,6,2.16,9.3a8.41,8.41,0,0,0,6,3.95v.15H468.83v-.15a8.41,8.41,0,0,0,6-3.95q2.16-3.35,2.16-9.3V561l.45-54.65c0-6.46-.11-11.22-.3-14.3h.44l51.83,74.46q9.82-13.85,53.16-73.71V493h.15l-.15.3.15,80.57q0,6,2.16,9.31a8.4,8.4,0,0,0,6,3.94v.15l-13-.15h-2.54q-6,0-13.84.15v-.15a8.63,8.63,0,0,0,6.1-3.94c1.49-2.24,2.18-5.34,2.09-9.31l-.6-50.49-43.78,64v.15h-.15v-.15Z"/><path class="cls-3" d="M714.84,492.53a8.43,8.43,0,0,0-6,3.94q-2.16,3.36-2.16,9.31l.3,52.87q0,16.53.45,26.65a5.83,5.83,0,0,1-.9,3.73h-1.34q-13.54-13.86-75.5-71.63l-.45,45.42v11.32q0,6,2.16,9.3a8.41,8.41,0,0,0,6,3.95v.15H612.68v-.15a8.41,8.41,0,0,0,6-3.95q2.16-3.35,2.16-9.3V561l.45-54.65q0-9.69-.3-14.3h.45L696.23,560c.79.89,1.34,1.34,1.64,1.34s.59-.65.59-1.94l-.15-53.61q0-6-2.16-9.31a8.43,8.43,0,0,0-6-3.94v-.15h24.72Z"/><path class="cls-4" d="M773.37,491.19a11.84,11.84,0,0,0-6.7,2.45,22.25,22.25,0,0,0-4.77,5.44V574a11,11,0,0,0,2.23,7,14.45,14.45,0,0,0,3.73,3.79,13.37,13.37,0,0,0,5.21,2.16q.3.3.15.45c-.4.3-1.64.39-3.72.3a286.6,286.6,0,0,0-29.64,0c-1.49.09-2.48-.1-3-.6a14.16,14.16,0,0,0,8.57-3.65,11,11,0,0,0,3.79-7.52V503.7a10.87,10.87,0,0,0-1.19-5.22,16.33,16.33,0,0,0-3.2-5.13,6,6,0,0,0-4.39-2.16q1.18-.3,16.83-.37T773.37,491.19Z"/><path class="cls-5" d="M849.17,548.07q6.54,6.85,7,15.19a21.46,21.46,0,0,1-.38,6.18,17.76,17.76,0,0,1-2.75,6.78,40.43,40.43,0,0,1-4.92,6.25,14.06,14.06,0,0,1-4.91,3.73q-9.24,4.9-23.53,3.72-17.58-1.49-22.93-7V563.86a6.17,6.17,0,0,1,.59.74q5.5,9.69,11.47,14A26.83,26.83,0,0,0,823,583.67q15,1.33,19.5-7a10,10,0,0,1,.75-1.79,18.31,18.31,0,0,0,1-5.51,15.28,15.28,0,0,0-3.87-11.17q-4.17-4.61-17.13-13.1-16.38-10.73-21.74-16.38A22.31,22.31,0,0,1,796,512q.6-10.12,9.46-16.46t22.11-5.29a58.69,58.69,0,0,1,16.68,3.88q6.86,2.82,6.41,5.06.14,1.33.29,16.83.9,1.49-2.9-4.32a42.09,42.09,0,0,0-9.31-10.13q-5.07-4-13.7-4.62-7.59-.58-12.28,2.54t-5.14,9.68a15.37,15.37,0,0,0,3.87,11q3.87,4.47,14.74,11.17Q842.91,541.38,849.17,548.07Z"/><path class="cls-6" d="M969.05,560.29c.39.29.59,2.68.59,7.14a93,93,0,0,1-.74,12.22,8.83,8.83,0,0,1-.45,1l-.74.74q-2.24,2.09-8.49,4.32-10.42,3.72-25.92,3.72-21.73,0-37.08-14.14-15.63-14.15-15.93-35.6v-.14a47.25,47.25,0,0,1,15.93-35.6q15.35-14.14,37.08-14.14,15.5,0,25.92,3.72,6.26,2.24,8.49,4.32l.74.74a8.23,8.23,0,0,1,.45,1.05,92.69,92.69,0,0,1,.74,12.21c0,4.46-.2,6.85-.59,7.15h-.3a17.36,17.36,0,0,0-1.49-4.32,21.45,21.45,0,0,0-3.65-5.22,44.22,44.22,0,0,0-6.18-5.43,48.07,48.07,0,0,0-9.08-5.14q-6-2.69-15.49-2.68-16.08,0-26.36,10.72-11,11.63-11,31.87v1.64q0,20.25,11,31.87,10.27,10.73,26.36,10.72,9.53,0,15.49-2.68a48.07,48.07,0,0,0,9.08-5.14,43.58,43.58,0,0,0,6.18-5.43,21.45,21.45,0,0,0,3.65-5.22,17.31,17.31,0,0,0,1.49-4.31Z"/><path class="cls-7" d="M1096.52,539.59q0,21-15.49,35.59-15.33,14.45-36.78,14.44-22.49,0-37.38-13.55-15.34-13.85-15.34-36A47.38,47.38,0,0,1,1007,504.14q15.33-14.29,37.23-14.29,22.34,0,37.23,14Q1096.53,517.84,1096.52,539.59Zm-14.74,2.53q0-21.15-11.62-33.51-11-11.76-29.34-11.76A31.46,31.46,0,0,0,1016,508q-9.75,11.16-9.76,29,0,21.45,11.32,33.81,11,11.91,29.79,11.91,15.18,0,24.79-11.24T1081.78,542.12Z"/><path class="cls-8" d="M1147.75,587.69l-13-.15h-3.27l-13,.15v-.15q6.86-.9,8-10.43v-.59a12.3,12.3,0,0,0,.15-2.24l.15-68h-.15v-.15q0-6-2.16-9.31a8.4,8.4,0,0,0-6-3.94v-.15l37.23-.3q12.21.45,19.36,5.06,8.79,5.67,8.79,16.83,0,14.75-18.47,25.32a5.65,5.65,0,0,1-1.56,1c-.65.3-1.32.57-2,.82l-1.94.67-1.34.44a19,19,0,0,1-2.68.6c-1.19.2-3.38.4-6.55.6a47.83,47.83,0,0,0-10.13.59l.45,29.93q0,6,2.16,9.31a8.37,8.37,0,0,0,6,3.95v.15ZM1169,515v-.14a22.48,22.48,0,0,0-1.34-8.12c-.89-2.33-2-3.9-3.42-4.69v-.3q-4.77-4.32-15.34-4.32c-5.66,0-8.69.85-9.08,2.53a6.28,6.28,0,0,0-.15,1.49l-.45,36.34h6a35.83,35.83,0,0,0,8.93-1,.34.34,0,0,0,.23-.08.28.28,0,0,1,.22-.07,17.45,17.45,0,0,0,8.79-5.21,23.19,23.19,0,0,0,5.8-15.94Z"/><path class="cls-9" d="M1273.88,587.84a25.81,25.81,0,0,1-3.13.15q-11.31-.6-28.89-.6-12.81,0-34.4.15v-.15a8.41,8.41,0,0,0,6-3.95q2.16-3.35,2.16-9.3l.15-67.91h-.15v-.15q0-6-2.16-9.31a8.4,8.4,0,0,0-6-3.94v-.15l27.26-.15q11,0,20.4-.3h1q6.55-.15,12.21-.6c3.18-.19,4.77,0,4.77.6v2.38l.15,13h-.15a7.22,7.22,0,0,0-1.49-3.43,9.64,9.64,0,0,0-3.87-2.6,31,31,0,0,0-7.15-1.79,111.56,111.56,0,0,0-11.47-1q-6.26-.15-17.27-.15c-1.59,0-2.64.25-3.13.75a5,5,0,0,0-.3,2.23V532c0,1.19.69,1.79,2.09,1.79q3.87,0,28.14.15,6,0,8.64-2.76a11.82,11.82,0,0,0,3.28-6.62h.14q-.15,5.81.15,24h-.15a8.4,8.4,0,0,0-3.94-6q-3.36-2.16-9.31-2.16-9.37-.58-27.7-.45c-.89,0-1.34.35-1.34,1v31.72q0,6.69,7.89,8.34,1.94.3,13.56.29a39.28,39.28,0,0,0,9.53-1q8.93-2.54,13.17-5.58a13.61,13.61,0,0,0,5.44-6.93l.15.15-3,19.21-.15.9Z"/>
</svg>
